<?xml version="1.0" standalone="no"?>
<!DOCTYPE svg PUBLIC "-//W3C//DTD SVG 20010904//EN"
 "http://www.w3.org/TR/2001/REC-SVG-20010904/DTD/svg10.dtd">
<svg version="1.0" xmlns="http://www.w3.org/2000/svg"
 width="336.000000pt" height="336.000000pt" viewBox="0 0 336.000000 336.000000"
 preserveAspectRatio="xMidYMid meet">
<metadata>
Created by potrace 1.11, written by Peter Selinger 2001-2013
</metadata>
<g transform="translate(0.000000,336.000000) scale(0.100000,-0.100000)"
fill="#000000" stroke="none">
<path d="M1162 2254 c-132 -29 -253 -111 -304 -207 -20 -36 -23 -57 -23 -147
0 -97 2 -109 27 -152 60 -101 141 -144 388 -204 252 -62 295 -87 295 -169 0
-85 -79 -144 -205 -153 -121 -8 -230 36 -260 107 l-12 31 -134 0 c-154 0 -150
3 -113 -95 57 -152 238 -245 480 -245 235 0 407 82 486 233 25 46 28 63 28
147 0 78 -4 102 -22 135 -58 108 -150 157 -403 215 -96 22 -195 50 -220 63
-56 29 -85 75 -76 122 16 83 100 131 227 129 95 -1 164 -34 198 -95 l22 -39
126 0 126 0 -5 38 c-14 97 -91 195 -193 243 -118 56 -294 74 -433 43z"/>
<path d="M2219 1337 c-51 -26 -89 -89 -89 -147 0 -173 250 -234 328 -80 12 24
22 60 22 80 0 20 -10 56 -22 80 -28 53 -90 90 -153 90 -24 0 -60 -10 -86 -23z"/>
</g>
</svg>
